<?xml version="1.0" standalone="no"?>
<!DOCTYPE svg PUBLIC "-//W3C//DTD SVG 20010904//EN"
 "http://www.w3.org/TR/2001/REC-SVG-20010904/DTD/svg10.dtd">
<svg version="1.0" xmlns="http://www.w3.org/2000/svg"
 width="1592.000000pt" height="1592.000000pt" viewBox="0 0 1592.000000 1592.000000"
 preserveAspectRatio="xMidYMid meet">
<metadata>
Created by potrace 1.14, written by Peter Selinger 2001-2017
</metadata>
<g transform="translate(0.000000,1592.000000) scale(0.100000,-0.100000)"
fill="#000000" stroke="none">
<path d="M6817 15874 c-1 -1 -56 -4 -122 -8 -66 -3 -140 -8 -165 -11 -25 -2
-70 -7 -100 -10 -30 -3 -66 -7 -80 -10 -14 -2 -47 -7 -75 -10 -27 -3 -63 -8
-80 -11 -764 -129 -1403 -407 -1924 -836 -121 -100 -382 -364 -477 -483 -283
-355 -479 -714 -615 -1128 -45 -137 -110 -383 -123 -467 -50 -311 -60 -426
-61 -670 0 -149 11 -376 20 -390 2 -3 6 -27 9 -55 39 -325 136 -647 286 -946
210 -420 565 -822 948 -1074 23 -15 42 -31 42 -36 0 -4 -37 -34 -82 -66 -339
-238 -1154 -857 -1304 -989 -12 -11 -48 -41 -80 -69 -169 -144 -302 -270 -431
-408 l-62 -67 -113 1 c-62 0 -126 -3 -143 -6 -16 -3 -55 -10 -85 -15 -73 -13
-168 -59 -220 -106 -92 -83 -136 -183 -160 -359 -16 -119 -19 -157 -26 -259
l-6 -99 -62 -56 c-138 -125 -302 -300 -411 -436 -22 -27 -43 -52 -46 -55 -30
-25 -369 -516 -369 -534 0 -3 -16 -31 -36 -61 -94 -147 -288 -555 -369 -775
-63 -173 -147 -458 -169 -571 -33 -178 -46 -252 -51 -294 -12 -111 -15 -133
-21 -210 -3 -44 -12 -111 -19 -150 -44 -233 -38 -520 16 -720 70 -263 250
-474 502 -590 109 -50 270 -99 397 -120 19 -3 60 -10 90 -15 30 -5 82 -12 115
-15 33 -3 78 -8 100 -10 117 -13 201 -15 226 -4 46 18 57 71 34 161 -18 72
-49 123 -152 251 -118 147 -176 286 -190 453 l-6 76 99 -75 c104 -78 235 -158
328 -198 52 -23 55 -26 54 -59 0 -19 9 -84 20 -145 35 -189 54 -319 68 -450 3
-33 7 -69 9 -81 20 -126 28 -687 12 -874 -16 -199 -47 -407 -92 -620 -8 -36
-48 -180 -66 -234 -23 -72 -24 -104 -3 -134 24 -34 62 -49 144 -56 41 -4 91
-9 110 -11 19 -2 67 -7 105 -10 39 -3 86 -8 105 -10 19 -2 71 -7 115 -10 44
-4 94 -8 110 -10 17 -2 62 -7 100 -10 70 -6 137 -11 230 -20 142 -13 173 -16
210 -20 22 -2 76 -7 120 -10 75 -6 84 -9 152 -56 152 -104 345 -180 558 -218
33 -6 71 -13 85 -16 13 -3 42 -7 65 -10 22 -3 51 -8 65 -10 14 -3 50 -7 80
-10 30 -3 69 -8 85 -10 58 -8 270 -34 330 -40 33 -3 76 -7 95 -10 19 -2 61 -7
93 -10 138 -13 175 -16 217 -21 25 -2 72 -7 105 -9 61 -5 141 -12 230 -20 28
-2 86 -7 130 -10 44 -3 103 -8 130 -10 28 -3 95 -7 150 -10 55 -3 134 -7 175
-10 109 -8 217 -14 370 -20 74 -3 182 -8 240 -10 505 -21 1828 -27 2410 -12
460 13 783 24 1185 42 313 14 437 20 590 30 33 2 110 6 170 10 61 3 126 8 145
10 19 2 69 7 110 10 121 10 263 25 300 30 14 2 50 7 80 10 30 3 84 11 120 16
36 6 83 13 105 16 99 13 460 83 555 108 36 9 73 19 83 21 32 7 145 39 247 69
30 9 62 18 70 20 90 23 374 129 549 205 744 318 1250 724 1648 1320 54 81 153
239 153 245 0 2 23 43 51 92 44 76 178 343 262 523 121 260 298 722 384 1000
35 114 109 376 117 415 3 11 14 56 25 100 11 44 25 107 32 140 7 33 14 65 15
70 4 17 29 148 40 214 3 18 8 43 10 55 5 26 33 215 40 271 2 22 7 58 10 80 12
85 13 91 29 235 6 47 16 147 20 190 2 19 6 64 9 100 14 131 15 147 21 230 3
47 8 108 10 135 26 298 26 1132 1 1330 -2 17 -7 69 -11 117 -3 48 -8 98 -10
110 -2 13 -6 48 -9 78 -4 30 -8 66 -10 80 -3 14 -7 48 -11 75 -3 28 -10 75
-15 105 -5 30 -12 69 -14 85 -5 33 -32 191 -41 240 -3 17 -20 95 -36 175 -17
80 -33 153 -34 162 -2 9 -24 97 -49 195 -44 173 -73 277 -191 683 -31 107 -59
202 -61 210 -2 8 -11 42 -19 75 -9 33 -17 67 -19 76 -63 265 -186 667 -240
784 -13 28 -27 61 -31 74 -9 31 -92 190 -135 261 -89 146 -236 313 -335 379
-41 28 -132 74 -137 70 -2 -1 -12 3 -23 9 -49 26 -165 31 -249 11 -91 -22
-146 -56 -366 -225 -167 -128 -182 -139 -390 -278 -299 -200 -521 -317 -815
-431 -97 -38 -252 -88 -340 -111 -16 -4 -32 -8 -35 -9 -82 -25 -342 -78 -439
-90 -30 -4 -61 -8 -70 -10 -9 -1 -43 -6 -76 -9 -133 -14 -161 -18 -176 -27
-12 -6 -78 12 -215 57 -227 74 -575 176 -774 225 -74 19 -137 35 -139 36 -2 1
34 60 81 130 339 511 559 1129 618 1738 24 238 11 593 -26 741 -5 21 -2 25 24
30 45 9 88 57 101 112 26 110 -23 172 -148 185 -29 3 -54 7 -56 9 -1 2 -21 55
-45 118 -143 388 -377 740 -698 1052 -193 187 -490 411 -712 537 -283 160
-655 320 -980 420 -178 54 -528 135 -680 157 -30 4 -57 8 -60 9 -3 1 -34 5
-70 9 -36 5 -73 10 -82 11 -9 2 -48 6 -85 10 -37 3 -81 8 -98 10 -90 12 -636
29 -648 19z"/>
</g>
</svg>
